<svg xmlns="http://www.w3.org/2000/svg" viewBox="0 0 360.8 314.05"><defs><style>.cls-1{fill:none;stroke:#efe8f2;stroke-linecap:round;stroke-linejoin:round;stroke-width:24px;}</style></defs><g id="Layer_2" data-name="Layer 2"><g id="Layer_1-2" data-name="Layer 1"><rect class="cls-1" x="143.96" y="12" width="72.88" height="72.88" rx="17.51"/><line class="cls-1" x1="218.98" y1="48.44" x2="300.83" y2="48.44"/><line class="cls-1" x1="59.97" y1="48.44" x2="141.82" y2="48.44"/><circle class="cls-1" cx="326.71" cy="48.44" r="22.08"/><circle class="cls-1" cx="34.08" cy="48.44" r="22.08"/><path class="cls-1" d="M187.7,250.48l68.54-32c3.67-1.19,5.36-4.28,3.8-7L193.4,124.13c-3.25-5.6-14.23-5.6-17.48,0L109.28,211.5c-1.55,2.68.14,5.77,3.81,7l68.53,32A10,10,0,0,0,187.7,250.48Z"/><line class="cls-1" x1="210.04" y1="240.7" x2="210.04" y2="302.05"/><line class="cls-1" x1="159.28" y1="240.7" x2="159.28" y2="302.05"/></g></g></svg>